<?xml version="1.0" encoding="UTF-8" standalone="no"?>
<!-- Created with Inkscape (http://www.inkscape.org/) -->

<svg
   version="1.1"
   id="svg824"
   width="366"
   height="130"
   viewBox="0 0 366 130"
   sodipodi:docname="lemniscate.svg"
   inkscape:version="1.1 (c68e22c387, 2021-05-23)"
   xmlns:inkscape="http://www.inkscape.org/namespaces/inkscape"
   xmlns:sodipodi="http://sodipodi.sourceforge.net/DTD/sodipodi-0.dtd"
   xmlns="http://www.w3.org/2000/svg"
   xmlns:svg="http://www.w3.org/2000/svg">
  <defs
     id="defs828" />
  <sodipodi:namedview
     id="namedview826"
     pagecolor="#ffffff"
     bordercolor="#666666"
     borderopacity="1.0"
     inkscape:pageshadow="2"
     inkscape:pageopacity="0.0"
     inkscape:pagecheckerboard="0"
     showgrid="false"
     inkscape:zoom="1.7937158"
     inkscape:cx="234.98705"
     inkscape:cy="103.4166"
     inkscape:window-width="1920"
     inkscape:window-height="1017"
     inkscape:window-x="-8"
     inkscape:window-y="-8"
     inkscape:window-maximized="1"
     inkscape:current-layer="layer1" />
  <g
     inkscape:groupmode="layer"
     id="layer1"
     inkscape:label="Image 1"
     style="display:inline">
    <path
       style="display:inline;fill:none;stroke:#000000;stroke-width:1px;stroke-linecap:butt;stroke-linejoin:miter;stroke-opacity:1"
       d="M 182.02361,64.94747 156.93603,42.089892 144.94974,31.497356 127.10967,20.068569 114.84463,12.542289 98.677079,7.5247685 l -12.822544,-2.23 -15.331302,-0.83626 -13.101291,1.67251 -13.93755,5.0175205 -10.03504,6.96877 -7.805016,6.132522 -5.29627,7.526276 -5.01752,6.690022 -2.50876,6.690023 -2.50875,6.968774 -1.6725095,6.690023 -0.27875,6.690023 v 6.968774 l 1.9512595,8.083777 4.18126,10.871287 4.46002,8.362529 4.18126,4.738771 7.24752,6.13252 6.132526,5.85377 5.29626,2.50876 6.96878,2.50875 3.90251,2.78751 11.42879,1.39376 18.118811,0.83625 14.495049,-2.23001 15.331298,-4.73876 10.59254,-4.73877 10.03503,-5.57502 10.59254,-7.80502 10.03503,-7.805032 8.64128,-9.198781 11.15004,-9.477533 6.13252,-7.526276 6.69002,-4.738766 9.75629,-8.92003 9.47753,-8.64128 7.52628,-8.083777 9.47753,-6.690023 7.52627,-6.132521 8.08379,-5.017512 8.92003,-3.90252 9.47753,-4.46001 8.08378,-3.6237705 10.03504,-1.6725 9.75628,-0.83625 h 10.03503 l 11.15004,1.6725 11.15004,2.78751 7.24753,3.9025105 6.13252,3.62377 5.57502,4.46001 6.13252,6.411273 6.41127,8.362529 3.62376,7.247525 2.23001,7.247524 1.6725,7.805027 0.83626,7.247525 -0.55751,10.592536 -1.39375,4.738766 -2.78751,7.247525 -3.62376,7.247525 -4.73877,7.805026 -8.36253,6.69002 -5.01751,5.29627 -7.24753,4.46002 -9.75628,3.90251 -15.3313,2.23001 -11.42879,1.39375 -8.92003,-1.39375 -14.2163,-3.06626 -11.70754,-4.18127 -9.47753,-4.73876 -9.19879,-4.46002 -9.75629,-7.80502 -11.70754,-8.920036 -7.80503,-7.805027 -6.69002,-4.738766 -9.47753,-9.756283 z"
       id="path967" />
  </g>
</svg>
